<mxfile host="app.diagrams.net" agent="Mozilla/5.0 (Windows NT 10.0; Win64; x64) AppleWebKit/537.36 (KHTML, like Gecko) Chrome/130.0.0.0 YaBrowser/24.12.0.0 Safari/537.36" version="26.0.5">
  <diagram name="Страница — 1" id="wDaofXL5NxdqYEj1XcTp">
    <mxGraphModel dx="1414" dy="769" grid="1" gridSize="10" guides="1" tooltips="1" connect="1" arrows="1" fold="1" page="1" pageScale="1" pageWidth="827" pageHeight="1169" math="0" shadow="0">
      <root>
        <mxCell id="0" />
        <mxCell id="1" parent="0" />
        <mxCell id="Y1Cuccr-TNUJJvR-DcCu-14" value="" style="edgeStyle=orthogonalEdgeStyle;rounded=0;orthogonalLoop=1;jettySize=auto;html=1;" edge="1" parent="1" source="Y1Cuccr-TNUJJvR-DcCu-1" target="Y1Cuccr-TNUJJvR-DcCu-2">
          <mxGeometry relative="1" as="geometry" />
        </mxCell>
        <mxCell id="Y1Cuccr-TNUJJvR-DcCu-1" value="Начало&amp;nbsp;" style="ellipse;whiteSpace=wrap;html=1;fontFamily=Times New Roman;fontSize=13;" vertex="1" parent="1">
          <mxGeometry x="280" y="40" width="280" height="40" as="geometry" />
        </mxCell>
        <mxCell id="Y1Cuccr-TNUJJvR-DcCu-15" value="" style="edgeStyle=orthogonalEdgeStyle;rounded=0;orthogonalLoop=1;jettySize=auto;html=1;" edge="1" parent="1" source="Y1Cuccr-TNUJJvR-DcCu-2" target="Y1Cuccr-TNUJJvR-DcCu-4">
          <mxGeometry relative="1" as="geometry" />
        </mxCell>
        <mxCell id="Y1Cuccr-TNUJJvR-DcCu-2" value="&lt;div&gt;Console.Write(&quot;Введите длину массива n: &quot;);&lt;/div&gt;&lt;div&gt;int n = int.Parse(Console.ReadLine())&lt;/div&gt;" style="shape=parallelogram;perimeter=parallelogramPerimeter;whiteSpace=wrap;html=1;fixedSize=1;fontFamily=Times New Roman;fontSize=13;" vertex="1" parent="1">
          <mxGeometry x="280" y="120" width="280" height="80" as="geometry" />
        </mxCell>
        <mxCell id="Y1Cuccr-TNUJJvR-DcCu-16" value="" style="edgeStyle=orthogonalEdgeStyle;rounded=0;orthogonalLoop=1;jettySize=auto;html=1;" edge="1" parent="1" source="Y1Cuccr-TNUJJvR-DcCu-4" target="Y1Cuccr-TNUJJvR-DcCu-5">
          <mxGeometry relative="1" as="geometry" />
        </mxCell>
        <mxCell id="Y1Cuccr-TNUJJvR-DcCu-4" value="&lt;div&gt;&amp;nbsp;double[] array = new double[n];&lt;/div&gt;&lt;div&gt;&amp;nbsp;Console.WriteLine(&quot;Введите элементы массива:&quot;);&lt;/div&gt;&lt;div&gt;&amp;nbsp;for (int i = 0; i &amp;lt; n; i++)&lt;/div&gt;&lt;div&gt;&amp;nbsp;{&lt;/div&gt;&lt;div&gt;&amp;nbsp; &amp;nbsp; &amp;nbsp;Console.Write($&quot;Элемент {i + 1}: &quot;);&lt;/div&gt;&lt;div&gt;&amp;nbsp; &amp;nbsp; &amp;nbsp;array[i] = double.Parse(Console.ReadLine());&lt;/div&gt;&lt;div&gt;&amp;nbsp;}&lt;/div&gt;&lt;div&gt;Элементы массива вводятся пользователем вручную&lt;/div&gt;" style="rounded=0;whiteSpace=wrap;html=1;fontFamily=Times New Roman;fontSize=13;" vertex="1" parent="1">
          <mxGeometry x="280" y="240" width="280" height="160" as="geometry" />
        </mxCell>
        <mxCell id="Y1Cuccr-TNUJJvR-DcCu-17" value="" style="edgeStyle=orthogonalEdgeStyle;rounded=0;orthogonalLoop=1;jettySize=auto;html=1;" edge="1" parent="1" source="Y1Cuccr-TNUJJvR-DcCu-5" target="Y1Cuccr-TNUJJvR-DcCu-6">
          <mxGeometry relative="1" as="geometry" />
        </mxCell>
        <mxCell id="Y1Cuccr-TNUJJvR-DcCu-5" value="double[] oddNumbers = array.Where(x =&amp;gt; x % 2 != 0).ToArray();&lt;div&gt;Отфильтровываем нечётные числа&lt;/div&gt;" style="rounded=0;whiteSpace=wrap;html=1;fontFamily=Times New Roman;fontSize=13;" vertex="1" parent="1">
          <mxGeometry x="280" y="440" width="280" height="60" as="geometry" />
        </mxCell>
        <mxCell id="Y1Cuccr-TNUJJvR-DcCu-9" value="" style="edgeStyle=orthogonalEdgeStyle;rounded=0;orthogonalLoop=1;jettySize=auto;html=1;fontFamily=Times New Roman;fontSize=13;" edge="1" parent="1" source="Y1Cuccr-TNUJJvR-DcCu-6" target="Y1Cuccr-TNUJJvR-DcCu-7">
          <mxGeometry relative="1" as="geometry" />
        </mxCell>
        <mxCell id="Y1Cuccr-TNUJJvR-DcCu-10" value="" style="edgeStyle=orthogonalEdgeStyle;rounded=0;orthogonalLoop=1;jettySize=auto;html=1;fontFamily=Times New Roman;fontSize=13;" edge="1" parent="1" source="Y1Cuccr-TNUJJvR-DcCu-6" target="Y1Cuccr-TNUJJvR-DcCu-8">
          <mxGeometry relative="1" as="geometry" />
        </mxCell>
        <mxCell id="Y1Cuccr-TNUJJvR-DcCu-6" value="Есть ли нечётные числа?" style="rhombus;whiteSpace=wrap;html=1;fontFamily=Times New Roman;fontSize=13;" vertex="1" parent="1">
          <mxGeometry x="280" y="544.5" width="280" height="80" as="geometry" />
        </mxCell>
        <mxCell id="Y1Cuccr-TNUJJvR-DcCu-7" value="&lt;div&gt;if (oddNumbers.Length == 0)&lt;/div&gt;&lt;div&gt;{&lt;/div&gt;&lt;div&gt;&amp;nbsp; &amp;nbsp; Console.WriteLine(&quot;\nВ массиве нет нечётных чисел.&quot;)&lt;/div&gt;" style="rounded=0;whiteSpace=wrap;html=1;fontFamily=Times New Roman;fontSize=13;" vertex="1" parent="1">
          <mxGeometry x="600" y="542" width="280" height="85" as="geometry" />
        </mxCell>
        <mxCell id="Y1Cuccr-TNUJJvR-DcCu-18" value="" style="edgeStyle=orthogonalEdgeStyle;rounded=0;orthogonalLoop=1;jettySize=auto;html=1;" edge="1" parent="1" source="Y1Cuccr-TNUJJvR-DcCu-8" target="Y1Cuccr-TNUJJvR-DcCu-13">
          <mxGeometry relative="1" as="geometry" />
        </mxCell>
        <mxCell id="Y1Cuccr-TNUJJvR-DcCu-8" value="&lt;div&gt;else&lt;/div&gt;&lt;div&gt;}&lt;/div&gt;&lt;div&gt;&amp;nbsp; &amp;nbsp; Array.Sort(oddNumbers);&lt;/div&gt;&lt;div&gt;&amp;nbsp; &amp;nbsp; Console.WriteLine(&quot;\nМассив из нечётных чисел, отсортированный по возрастанию:&quot;);&lt;/div&gt;&lt;div&gt;&amp;nbsp; &amp;nbsp; foreach (var num in oddNumbers)&lt;/div&gt;" style="rounded=0;whiteSpace=wrap;html=1;fontFamily=Times New Roman;fontSize=13;" vertex="1" parent="1">
          <mxGeometry x="280" y="670" width="280" height="120" as="geometry" />
        </mxCell>
        <mxCell id="Y1Cuccr-TNUJJvR-DcCu-11" value="нет" style="text;html=1;align=center;verticalAlign=middle;whiteSpace=wrap;rounded=0;fontFamily=Times New Roman;fontSize=13;" vertex="1" parent="1">
          <mxGeometry x="540" y="555" width="60" height="30" as="geometry" />
        </mxCell>
        <mxCell id="Y1Cuccr-TNUJJvR-DcCu-12" value="да" style="text;html=1;align=center;verticalAlign=middle;whiteSpace=wrap;rounded=0;fontFamily=Times New Roman;fontSize=13;" vertex="1" parent="1">
          <mxGeometry x="370" y="624.5" width="60" height="30" as="geometry" />
        </mxCell>
        <mxCell id="Y1Cuccr-TNUJJvR-DcCu-13" value="Конец" style="ellipse;whiteSpace=wrap;html=1;fontFamily=Times New Roman;fontSize=13;" vertex="1" parent="1">
          <mxGeometry x="280" y="830" width="280" height="50" as="geometry" />
        </mxCell>
        <mxCell id="Y1Cuccr-TNUJJvR-DcCu-19" value="" style="endArrow=none;html=1;rounded=0;" edge="1" parent="1">
          <mxGeometry width="50" height="50" relative="1" as="geometry">
            <mxPoint x="740" y="808" as="sourcePoint" />
            <mxPoint x="740" y="628" as="targetPoint" />
          </mxGeometry>
        </mxCell>
        <mxCell id="Y1Cuccr-TNUJJvR-DcCu-20" value="" style="endArrow=classic;html=1;rounded=0;" edge="1" parent="1">
          <mxGeometry width="50" height="50" relative="1" as="geometry">
            <mxPoint x="740" y="808" as="sourcePoint" />
            <mxPoint x="420" y="808" as="targetPoint" />
          </mxGeometry>
        </mxCell>
      </root>
    </mxGraphModel>
  </diagram>
</mxfile>
